# xmcd
#
# Track frame offsets: 
#        150
#        52896
#        96625
#        132259
#        173639
#        211650
#        240646
#        280974
#        315424
#
# Disc length: 4658 seconds
#
# Revision: 1
# Processed by: cddbd v1.5.2PL0 Copyright (c) Steve Scherf et al.
# Submitted via: ExactAudioCopyFreeDBPlugin 1.0
#
DISCID=77123009
DTITLE=Various Artist - Get Down With the Philly Sound [CD2: The Rewo
DTITLE=rks)
DYEAR=2010
DGENRE=Soul/Funk/Disco
TTITLE0=Harold Melvin and The Blue Notes - The Love I Lost (Dimitri From
TTITLE0=Paris Super Disco Blend)
TTITLE1=Philly Devotions - Hurt So Bad (Dimitri From Paris Super Disco
TTITLE1=Blend)
TTITLE2=The Jacksons - Living Together (a Dimitri From Paris Disco Re-
TTITLE2=Edit)
TTITLE3=Harld Melvin and The Blue Notes - Bad Luck (A Dimitry From Paris
TTITLE3=Disco Re-Edit)
TTITLE4=Teddy Pendergrass - The More I Get, the More I Want (Dimitri F
TTITLE4=rom Paris Super Disco Blend)
TTITLE5=Harld Melvin and The Blue Notes - Tell the World How I Feel Abou
TTITLE5=t 'Cha Baby (a Dimitri From Paris Disco Re-Edit)
TTITLE6=Teddy Pendergrass - You Can't Hide From Yourself (Dimitri From
TTITLE6=Paris Super Disco Blend)
TTITLE7=Eddie Kendricks - He's a Friend (Dimitri From Paris Super Disc
TTITLE7=o Blend)
TTITLE8=The Trammps - The Night the Lights Went Out (a Dimitri From Pa
TTITLE8=ris Disco Re-Edit)
EXTD=
EXTT0=
EXTT1=
EXTT2=
EXTT3=
EXTT4=
EXTT5=
EXTT6=
EXTT7=
EXTT8=
PLAYORDER=
